<svg width="420" height="100" viewBox="0 0 420 100" fill="none" xmlns="http://www.w3.org/2000/svg">
<rect x="0.5" y="0.5" width="419" height="99" rx="12.5" fill="#191A1A" stroke="#262626"/>
<rect width="302" height="48" transform="translate(59 26)" fill="#191A1A"/>
<path d="M83.0001 26C96.2548 26 107 36.7452 107 50C107 63.2547 96.2548 74 83.0001 74C69.7452 74 59 63.2547 59 50C59 46.4876 59.7546 43.1512 61.1104 40.1445C62.2315 37.8921 64.0715 35.6469 65.5516 34.881C63.9839 37.9584 63.2174 40.9778 63.0548 42.9984C64.1464 39.3984 66.2126 36.3829 69.1042 34.2539C74.0629 30.6084 80.7392 30.4448 83.3987 32.7674C78.4633 34.4619 73.0874 41.2797 74.2719 49.2685C74.4637 50.5873 74.8594 51.8684 75.4448 53.0658C74.5235 50.6386 74.4422 47.2244 75.9287 45.0064C77.5893 42.5339 79.9573 42.0113 81.2233 42.2784C80.7239 42.1739 79.6206 44.2865 79.4581 44.6581C79.0432 45.603 78.837 46.6263 78.8543 47.6581C78.8908 49.8135 79.7802 51.8667 81.3277 53.3677C85.9391 57.861 93.382 56.0929 96.7148 50.9638C99.0025 47.4334 99.2812 41.4422 96.3433 36.681C95.6106 35.5207 94.7368 34.4558 93.742 33.5107C89.3005 29.2733 82.9926 27.3453 76.9857 28.2212C74.3314 28.6451 72.072 29.4092 70.2075 30.5136C72.8109 27.9146 77.9872 26 83.0001 26Z" fill="white"/>
<path d="M121.944 38.28H125.784L133.048 57.992L140.28 38.28H144.12V61H141.368V43.4L134.872 61H131.192L124.696 43.4V61H121.944V38.28ZM156.343 61.384C154.785 61.384 153.42 61.0213 152.247 60.296C151.073 59.5707 150.167 58.5467 149.527 57.224C148.887 55.88 148.567 54.312 148.567 52.52C148.567 50.728 148.887 49.1707 149.527 47.848C150.167 46.504 151.073 45.4693 152.247 44.744C153.42 44.0187 154.785 43.656 156.343 43.656C157.879 43.656 159.233 44.0187 160.407 44.744C161.58 45.4693 162.487 46.504 163.127 47.848C163.767 49.1707 164.087 50.728 164.087 52.52C164.087 54.312 163.767 55.88 163.127 57.224C162.487 58.5467 161.58 59.5707 160.407 60.296C159.233 61.0213 157.879 61.384 156.343 61.384ZM156.343 58.824C157.9 58.824 159.105 58.2693 159.959 57.16C160.833 56.0293 161.271 54.4827 161.271 52.52C161.271 50.5573 160.833 49.0213 159.959 47.912C159.105 46.7813 157.9 46.216 156.343 46.216C154.785 46.216 153.569 46.7707 152.695 47.88C151.82 48.9893 151.383 50.536 151.383 52.52C151.383 54.504 151.82 56.0507 152.695 57.16C153.569 58.2693 154.785 58.824 156.343 58.824ZM166.949 58.312L177.669 46.408H167.269V44.04H180.613V46.728L169.893 58.632H180.869V61H166.949V58.312ZM184.779 44.04H187.467V61H184.779V44.04ZM184.715 38.248H187.531V41.384H184.715V38.248ZM195.951 61C194.906 61 194.085 60.744 193.487 60.232C192.89 59.6987 192.591 58.888 192.591 57.8L192.623 38.28H195.311V57.576C195.311 57.9173 195.397 58.184 195.567 58.376C195.759 58.5467 196.026 58.632 196.367 58.632H197.839V61H195.951ZM204.733 61C203.687 61 202.866 60.744 202.269 60.232C201.671 59.6987 201.373 58.888 201.373 57.8L201.405 38.28H204.093V57.576C204.093 57.9173 204.178 58.184 204.349 58.376C204.541 58.5467 204.807 58.632 205.149 58.632H206.621V61H204.733ZM215.138 61.384C213.368 61.384 211.97 60.9787 210.946 60.168C209.922 59.3573 209.41 58.2267 209.41 56.776C209.41 55.3253 209.837 54.184 210.69 53.352C211.544 52.52 212.898 51.9333 214.754 51.592L220.77 50.472C220.77 49.0427 220.429 47.976 219.746 47.272C219.085 46.568 218.082 46.216 216.738 46.216C215.586 46.216 214.658 46.472 213.954 46.984C213.272 47.496 212.802 48.2533 212.546 49.256L209.698 49.032C210.018 47.3893 210.797 46.088 212.034 45.128C213.293 44.1467 214.861 43.656 216.738 43.656C218.893 43.656 220.546 44.264 221.698 45.48C222.872 46.696 223.458 48.392 223.458 50.568V57.576C223.458 57.96 223.522 58.2373 223.65 58.408C223.8 58.5573 224.034 58.632 224.354 58.632H225.026V61C224.898 61.0213 224.749 61.032 224.578 61.032C224.408 61.0533 224.216 61.064 224.002 61.064C222.829 61.064 221.997 60.7867 221.506 60.232C221.016 59.6773 220.77 58.76 220.77 57.48L221.09 57.544C220.877 58.632 220.194 59.5493 219.042 60.296C217.89 61.0213 216.589 61.384 215.138 61.384ZM215.394 59.016C216.504 59.016 217.464 58.8027 218.274 58.376C219.085 57.928 219.704 57.3307 220.13 56.584C220.557 55.816 220.77 54.9627 220.77 54.024V52.808L215.266 53.832C214.157 54.024 213.368 54.344 212.898 54.792C212.45 55.2187 212.226 55.7947 212.226 56.52C212.226 57.3093 212.504 57.928 213.058 58.376C213.613 58.8027 214.392 59.016 215.394 59.016ZM243.02 38.28H246.732L254.924 61H251.916L249.644 54.536H240.108L237.836 61H234.828L243.02 38.28ZM248.716 51.848L244.876 40.68L241.036 51.848H248.716ZM263.797 61.384C262.346 61.384 261.077 61.0213 259.989 60.296C258.901 59.5707 258.069 58.5467 257.493 57.224C256.917 55.88 256.629 54.312 256.629 52.52C256.629 50.728 256.917 49.1707 257.493 47.848C258.069 46.504 258.901 45.4693 259.989 44.744C261.077 44.0187 262.346 43.656 263.797 43.656C264.949 43.656 265.984 43.9013 266.901 44.392C267.84 44.8827 268.544 45.5547 269.013 46.408V38.28H271.701V61H269.269L269.173 58.44C268.704 59.3573 267.989 60.0827 267.029 60.616C266.069 61.128 264.992 61.384 263.797 61.384ZM264.341 58.824C265.322 58.824 266.165 58.568 266.869 58.056C267.573 57.544 268.106 56.8187 268.469 55.88C268.832 54.9413 269.013 53.8213 269.013 52.52C269.013 51.2187 268.832 50.0987 268.469 49.16C268.106 48.2 267.573 47.4747 266.869 46.984C266.186 46.472 265.344 46.216 264.341 46.216C262.848 46.216 261.653 46.7813 260.757 47.912C259.882 49.0213 259.445 50.5573 259.445 52.52C259.445 54.4613 259.882 55.9973 260.757 57.128C261.653 58.2587 262.848 58.824 264.341 58.824ZM282.922 61.384C281.471 61.384 280.202 61.0213 279.114 60.296C278.026 59.5707 277.194 58.5467 276.618 57.224C276.042 55.88 275.754 54.312 275.754 52.52C275.754 50.728 276.042 49.1707 276.618 47.848C277.194 46.504 278.026 45.4693 279.114 44.744C280.202 44.0187 281.471 43.656 282.922 43.656C284.074 43.656 285.109 43.9013 286.026 44.392C286.965 44.8827 287.669 45.5547 288.138 46.408V38.28H290.826V61H288.394L288.298 58.44C287.829 59.3573 287.114 60.0827 286.154 60.616C285.194 61.128 284.117 61.384 282.922 61.384ZM283.466 58.824C284.447 58.824 285.29 58.568 285.994 58.056C286.698 57.544 287.231 56.8187 287.594 55.88C287.957 54.9413 288.138 53.8213 288.138 52.52C288.138 51.2187 287.957 50.0987 287.594 49.16C287.231 48.2 286.698 47.4747 285.994 46.984C285.311 46.472 284.469 46.216 283.466 46.216C281.973 46.216 280.778 46.7813 279.882 47.912C279.007 49.0213 278.57 50.5573 278.57 52.52C278.57 54.4613 279.007 55.9973 279.882 57.128C280.778 58.2587 281.973 58.824 283.466 58.824ZM294.879 50.408H305.471V52.936H294.879V50.408ZM316.249 61.384C314.691 61.384 313.326 61.0213 312.153 60.296C310.979 59.5707 310.073 58.5467 309.433 57.224C308.793 55.88 308.473 54.312 308.473 52.52C308.473 50.728 308.793 49.1707 309.433 47.848C310.073 46.504 310.979 45.4693 312.153 44.744C313.326 44.0187 314.691 43.656 316.249 43.656C317.785 43.656 319.139 44.0187 320.313 44.744C321.486 45.4693 322.393 46.504 323.033 47.848C323.673 49.1707 323.993 50.728 323.993 52.52C323.993 54.312 323.673 55.88 323.033 57.224C322.393 58.5467 321.486 59.5707 320.313 60.296C319.139 61.0213 317.785 61.384 316.249 61.384ZM316.249 58.824C317.806 58.824 319.011 58.2693 319.865 57.16C320.739 56.0293 321.177 54.4827 321.177 52.52C321.177 50.5573 320.739 49.0213 319.865 47.912C319.011 46.7813 317.806 46.216 316.249 46.216C314.691 46.216 313.475 46.7707 312.601 47.88C311.726 48.9893 311.289 50.536 311.289 52.52C311.289 54.504 311.726 56.0507 312.601 57.16C313.475 58.2693 314.691 58.824 316.249 58.824ZM327.904 44.04H330.368L330.464 48.36L330.144 48.072C330.442 46.6213 331.082 45.5227 332.064 44.776C333.066 44.0293 334.261 43.656 335.648 43.656C337.504 43.656 338.922 44.2533 339.904 45.448C340.885 46.6427 341.376 48.1893 341.376 50.088V61H338.688V50.856C338.688 49.256 338.4 48.0507 337.824 47.24C337.248 46.4293 336.33 46.024 335.072 46.024C333.728 46.024 332.64 46.4507 331.808 47.304C330.997 48.136 330.592 49.32 330.592 50.856V61H327.904V44.04ZM352.301 61.384C350.829 61.384 349.549 61.1493 348.461 60.68C347.394 60.1893 346.562 59.5173 345.965 58.664C345.389 57.7893 345.058 56.7867 344.973 55.656L347.789 55.464C347.959 56.5307 348.407 57.3627 349.133 57.96C349.858 58.536 350.914 58.824 352.301 58.824C353.495 58.824 354.423 58.632 355.085 58.248C355.767 57.864 356.109 57.2667 356.109 56.456C356.109 55.9867 355.991 55.6133 355.757 55.336C355.543 55.0373 355.127 54.7813 354.509 54.568C353.911 54.3333 353.005 54.1093 351.789 53.896C350.189 53.6187 348.919 53.256 347.981 52.808C347.042 52.36 346.37 51.816 345.965 51.176C345.581 50.536 345.389 49.7573 345.389 48.84C345.389 47.304 345.954 46.056 347.085 45.096C348.215 44.136 349.783 43.656 351.789 43.656C353.751 43.656 355.309 44.168 356.461 45.192C357.613 46.216 358.327 47.5173 358.605 49.096L355.789 49.288C355.597 48.3493 355.149 47.6027 354.445 47.048C353.762 46.4933 352.866 46.216 351.757 46.216C350.583 46.216 349.698 46.4507 349.101 46.92C348.503 47.368 348.205 47.9653 348.205 48.712C348.205 49.2667 348.333 49.7253 348.589 50.088C348.866 50.4293 349.293 50.7173 349.869 50.952C350.445 51.1653 351.255 51.3573 352.301 51.528C354.029 51.8267 355.362 52.1893 356.301 52.616C357.261 53.0213 357.933 53.5333 358.317 54.152C358.722 54.7493 358.925 55.5173 358.925 56.456C358.925 57.992 358.295 59.1973 357.037 60.072C355.799 60.9467 354.221 61.384 352.301 61.384Z" fill="white"/>
</svg>
