<svg width="420" height="100" viewBox="0 0 420 100" fill="none" xmlns="http://www.w3.org/2000/svg">
<rect x="0.5" y="0.5" width="419" height="99" rx="12.5" fill="#191A1A" stroke="#262626"/>
<rect width="336" height="48" transform="translate(42 26)" fill="#191A1A"/>
<path d="M60.7854 73.4319C50.0379 71.0509 42 61.4641 42 50C42 45.627 43.1696 41.527 45.2131 37.996L55.4925 55.8006C57.5375 59.497 61.4765 62 66 62C66.4855 62 66.9643 61.9712 67.4347 61.915L60.7854 73.4319ZM66 74L76.2883 56.1802C77.375 54.375 78 52.2606 78 50C78 47.2986 77.1074 44.8056 75.601 42.8H88.9013C89.615 45.0729 90 47.4915 90 50C90 63.2547 79.2547 74 66 74ZM72.173 53.708C70.9135 55.8003 68.6201 57.2 66 57.2C63.3353 57.2 61.0086 55.7523 59.7636 53.6005L59.6955 53.4802C59.1248 52.4487 58.8 51.2624 58.8 50C58.8 46.0234 62.0234 42.8 66 42.8C69.9766 42.8 73.2 46.0234 73.2 50C73.2 51.3116 72.8494 52.5414 72.2364 53.6005L72.173 53.708ZM48.3173 33.7726C52.7042 28.9948 59.0024 26 66 26C74.8834 26 82.6394 30.8264 86.7893 38H66C61.0472 38 56.7953 41.0005 54.9627 45.2828L48.3173 33.7726Z" fill="white"/>
<path d="M113.776 61.512C111.749 61.512 109.968 61.0427 108.432 60.104C106.896 59.144 105.701 57.768 104.848 55.976C103.995 54.184 103.568 52.0827 103.568 49.672C103.568 47.2613 103.995 45.16 104.848 43.368C105.701 41.5547 106.896 40.168 108.432 39.208C109.968 38.248 111.749 37.768 113.776 37.768C116.443 37.768 118.544 38.44 120.08 39.784C121.637 41.128 122.661 43.0373 123.152 45.512L120.24 45.704C119.92 44.04 119.216 42.7493 118.128 41.832C117.061 40.9147 115.611 40.456 113.776 40.456C112.325 40.456 111.045 40.8293 109.936 41.576C108.827 42.3013 107.963 43.3573 107.344 44.744C106.747 46.1307 106.448 47.7733 106.448 49.672C106.448 51.5707 106.747 53.2133 107.344 54.6C107.963 55.9653 108.827 57.0107 109.936 57.736C111.045 58.4613 112.325 58.824 113.776 58.824C115.717 58.824 117.232 58.3227 118.32 57.32C119.429 56.3173 120.133 54.8987 120.432 53.064L123.344 53.256C122.917 55.7947 121.872 57.8107 120.208 59.304C118.565 60.776 116.421 61.512 113.776 61.512ZM127.31 38.28H129.998V47.784L129.678 47.72C129.977 46.3547 130.606 45.3413 131.566 44.68C132.526 43.9973 133.71 43.656 135.118 43.656C136.91 43.656 138.297 44.2427 139.278 45.416C140.281 46.5893 140.782 48.1467 140.782 50.088V61H138.094V50.856C138.094 49.2347 137.795 48.0293 137.198 47.24C136.622 46.4293 135.737 46.024 134.542 46.024C133.134 46.024 132.025 46.4507 131.214 47.304C130.403 48.1573 129.998 49.352 129.998 50.888V61H127.31V38.28ZM145.279 44.04H147.647L147.775 48.328L147.519 48.232C147.732 46.8027 148.191 45.7467 148.895 45.064C149.599 44.3813 150.559 44.04 151.775 44.04H153.439V46.6H151.807C150.953 46.6 150.239 46.76 149.663 47.08C149.108 47.3787 148.681 47.8373 148.383 48.456C148.105 49.0747 147.967 49.8427 147.967 50.76V61H145.279V44.04ZM163.249 61.384C161.691 61.384 160.326 61.0213 159.153 60.296C157.979 59.5707 157.073 58.5467 156.433 57.224C155.793 55.88 155.473 54.312 155.473 52.52C155.473 50.728 155.793 49.1707 156.433 47.848C157.073 46.504 157.979 45.4693 159.153 44.744C160.326 44.0187 161.691 43.656 163.249 43.656C164.785 43.656 166.139 44.0187 167.313 44.744C168.486 45.4693 169.393 46.504 170.033 47.848C170.673 49.1707 170.993 50.728 170.993 52.52C170.993 54.312 170.673 55.88 170.033 57.224C169.393 58.5467 168.486 59.5707 167.313 60.296C166.139 61.0213 164.785 61.384 163.249 61.384ZM163.249 58.824C164.806 58.824 166.011 58.2693 166.865 57.16C167.739 56.0293 168.177 54.4827 168.177 52.52C168.177 50.5573 167.739 49.0213 166.865 47.912C166.011 46.7813 164.806 46.216 163.249 46.216C161.691 46.216 160.475 46.7707 159.601 47.88C158.726 48.9893 158.289 50.536 158.289 52.52C158.289 54.504 158.726 56.0507 159.601 57.16C160.475 58.2693 161.691 58.824 163.249 58.824ZM174.904 44.04H177.368L177.464 48.328L177.08 48.2C177.272 47.2827 177.602 46.4827 178.072 45.8C178.562 45.1173 179.16 44.5947 179.864 44.232C180.568 43.848 181.346 43.656 182.2 43.656C183.672 43.656 184.866 44.0613 185.784 44.872C186.722 45.6613 187.309 46.792 187.544 48.264L187.032 48.232C187.288 46.7813 187.864 45.6613 188.76 44.872C189.656 44.0613 190.818 43.656 192.248 43.656C193.442 43.656 194.456 43.912 195.288 44.424C196.141 44.9147 196.781 45.64 197.208 46.6C197.634 47.56 197.848 48.7227 197.848 50.088V61H195.16V50.664C195.16 49.128 194.861 47.976 194.264 47.208C193.666 46.4187 192.781 46.024 191.608 46.024C190.818 46.024 190.125 46.216 189.528 46.6C188.952 46.984 188.504 47.5387 188.184 48.264C187.864 48.9893 187.704 49.8533 187.704 50.856V61H185.016V50.856C185.016 49.2987 184.738 48.104 184.184 47.272C183.629 46.44 182.744 46.024 181.528 46.024C180.738 46.024 180.045 46.216 179.448 46.6C178.85 46.984 178.392 47.5493 178.072 48.296C177.752 49.0213 177.592 49.8747 177.592 50.856V61H174.904V44.04ZM209.218 61.384C207.639 61.384 206.263 61.0213 205.09 60.296C203.916 59.5707 203.01 58.5467 202.37 57.224C201.751 55.88 201.442 54.312 201.442 52.52C201.442 50.7493 201.751 49.192 202.37 47.848C203.01 46.504 203.906 45.4693 205.058 44.744C206.21 44.0187 207.554 43.656 209.09 43.656C210.562 43.656 211.863 44.008 212.994 44.712C214.124 45.3947 214.999 46.408 215.618 47.752C216.258 49.096 216.578 50.696 216.578 52.552V53.352H204.258C204.343 55.144 204.812 56.5093 205.666 57.448C206.54 58.3653 207.724 58.824 209.218 58.824C210.306 58.824 211.202 58.5787 211.906 58.088C212.631 57.576 213.143 56.872 213.442 55.976L216.322 56.2C215.874 57.7573 215.01 59.016 213.73 59.976C212.471 60.9147 210.967 61.384 209.218 61.384ZM213.634 50.984C213.506 49.4053 213.036 48.2213 212.226 47.432C211.436 46.6213 210.391 46.216 209.09 46.216C207.767 46.216 206.679 46.6213 205.826 47.432C204.994 48.2427 204.471 49.4267 204.258 50.984H213.634ZM226.766 38.28H229.774L234.446 57.224L239.086 38.28H242.222L246.894 57.224L251.534 38.28H254.574L248.59 61H245.134L240.654 43.4L236.174 61H232.75L226.766 38.28ZM262.936 61.384C261.358 61.384 259.982 61.0213 258.808 60.296C257.635 59.5707 256.728 58.5467 256.088 57.224C255.47 55.88 255.16 54.312 255.16 52.52C255.16 50.7493 255.47 49.192 256.088 47.848C256.728 46.504 257.624 45.4693 258.776 44.744C259.928 44.0187 261.272 43.656 262.808 43.656C264.28 43.656 265.582 44.008 266.712 44.712C267.843 45.3947 268.718 46.408 269.336 47.752C269.976 49.096 270.296 50.696 270.296 52.552V53.352H257.976C258.062 55.144 258.531 56.5093 259.384 57.448C260.259 58.3653 261.443 58.824 262.936 58.824C264.024 58.824 264.92 58.5787 265.624 58.088C266.35 57.576 266.862 56.872 267.16 55.976L270.04 56.2C269.592 57.7573 268.728 59.016 267.448 59.976C266.19 60.9147 264.686 61.384 262.936 61.384ZM267.352 50.984C267.224 49.4053 266.755 48.2213 265.944 47.432C265.155 46.6213 264.11 46.216 262.808 46.216C261.486 46.216 260.398 46.6213 259.544 47.432C258.712 48.2427 258.19 49.4267 257.976 50.984H267.352ZM281.524 61.384C280.35 61.384 279.305 61.128 278.388 60.616C277.47 60.104 276.766 59.3787 276.276 58.44L276.18 61H273.748V38.28H276.436V46.408C276.884 45.64 277.566 44.9893 278.484 44.456C279.401 43.9227 280.414 43.656 281.524 43.656C282.996 43.656 284.276 44.0187 285.364 44.744C286.473 45.4693 287.326 46.504 287.924 47.848C288.521 49.1707 288.819 50.728 288.819 52.52C288.819 54.312 288.521 55.88 287.924 57.224C287.326 58.5467 286.473 59.5707 285.364 60.296C284.276 61.0213 282.996 61.384 281.524 61.384ZM281.364 58.824C282.793 58.824 283.924 58.2587 284.756 57.128C285.588 55.9973 286.004 54.4613 286.004 52.52C286.004 50.5573 285.588 49.0213 284.756 47.912C283.945 46.7813 282.836 46.216 281.428 46.216C280.382 46.216 279.486 46.472 278.74 46.984C277.993 47.4747 277.417 48.2 277.012 49.16C276.628 50.0987 276.436 51.2187 276.436 52.52C276.436 53.8 276.628 54.92 277.012 55.88C277.417 56.8187 277.982 57.544 278.708 58.056C279.454 58.568 280.34 58.824 281.364 58.824ZM309.193 61.512C307.465 61.512 305.95 61.192 304.649 60.552C303.347 59.8907 302.313 58.9733 301.545 57.8C300.777 56.6267 300.329 55.272 300.201 53.736L303.081 53.544C303.23 54.6747 303.561 55.6347 304.073 56.424C304.585 57.2133 305.267 57.8107 306.121 58.216C306.995 58.6213 308.041 58.824 309.257 58.824C310.857 58.824 312.094 58.5147 312.969 57.896C313.843 57.2773 314.281 56.392 314.281 55.24C314.281 54.4933 314.11 53.8533 313.769 53.32C313.427 52.7867 312.787 52.296 311.849 51.848C310.91 51.4 309.555 50.952 307.785 50.504C305.993 50.056 304.585 49.5653 303.561 49.032C302.558 48.4987 301.822 47.8587 301.353 47.112C300.905 46.344 300.681 45.384 300.681 44.232C300.681 42.9733 300.979 41.8533 301.577 40.872C302.195 39.8907 303.07 39.1333 304.201 38.6C305.353 38.0453 306.697 37.768 308.233 37.768C309.854 37.768 311.262 38.0773 312.457 38.696C313.673 39.3147 314.633 40.168 315.337 41.256C316.062 42.344 316.51 43.592 316.681 45L313.801 45.192C313.673 44.2533 313.374 43.432 312.905 42.728C312.435 42.0027 311.806 41.448 311.017 41.064C310.227 40.6587 309.278 40.456 308.169 40.456C306.761 40.456 305.641 40.7973 304.809 41.48C303.977 42.1413 303.561 43.016 303.561 44.104C303.561 44.8293 303.721 45.416 304.041 45.864C304.382 46.312 304.958 46.7173 305.769 47.08C306.601 47.4213 307.849 47.7947 309.513 48.2C311.39 48.6693 312.883 49.224 313.993 49.864C315.123 50.504 315.934 51.2507 316.425 52.104C316.915 52.936 317.161 53.9173 317.161 55.048C317.161 56.3493 316.819 57.4907 316.137 58.472C315.454 59.432 314.505 60.1787 313.289 60.712C312.094 61.2453 310.729 61.512 309.193 61.512ZM326.549 61C325.013 61 323.872 60.648 323.125 59.944C322.4 59.24 322.037 58.1413 322.037 56.648V40.072H324.725V56.584C324.725 57.3307 324.885 57.864 325.205 58.184C325.547 58.4827 326.08 58.632 326.805 58.632H329.237V61H326.549ZM319.541 44.04H329.237V46.408H319.541V44.04ZM339.218 61.384C337.66 61.384 336.295 61.0213 335.122 60.296C333.948 59.5707 333.042 58.5467 332.402 57.224C331.762 55.88 331.442 54.312 331.442 52.52C331.442 50.728 331.762 49.1707 332.402 47.848C333.042 46.504 333.948 45.4693 335.122 44.744C336.295 44.0187 337.66 43.656 339.218 43.656C340.754 43.656 342.108 44.0187 343.282 44.744C344.455 45.4693 345.362 46.504 346.002 47.848C346.642 49.1707 346.962 50.728 346.962 52.52C346.962 54.312 346.642 55.88 346.002 57.224C345.362 58.5467 344.455 59.5707 343.282 60.296C342.108 61.0213 340.754 61.384 339.218 61.384ZM339.218 58.824C340.775 58.824 341.98 58.2693 342.834 57.16C343.708 56.0293 344.146 54.4827 344.146 52.52C344.146 50.5573 343.708 49.0213 342.834 47.912C341.98 46.7813 340.775 46.216 339.218 46.216C337.66 46.216 336.444 46.7707 335.57 47.88C334.695 48.9893 334.258 50.536 334.258 52.52C334.258 54.504 334.695 56.0507 335.57 57.16C336.444 58.2693 337.66 58.824 339.218 58.824ZM350.873 44.04H353.241L353.369 48.328L353.113 48.232C353.326 46.8027 353.785 45.7467 354.489 45.064C355.193 44.3813 356.153 44.04 357.369 44.04H359.033V46.6H357.401C356.547 46.6 355.833 46.76 355.257 47.08C354.702 47.3787 354.275 47.8373 353.977 48.456C353.699 49.0747 353.561 49.8427 353.561 50.76V61H350.873V44.04ZM368.843 61.384C367.264 61.384 365.888 61.0213 364.715 60.296C363.541 59.5707 362.635 58.5467 361.995 57.224C361.376 55.88 361.067 54.312 361.067 52.52C361.067 50.7493 361.376 49.192 361.995 47.848C362.635 46.504 363.531 45.4693 364.683 44.744C365.835 44.0187 367.179 43.656 368.715 43.656C370.187 43.656 371.488 44.008 372.619 44.712C373.749 45.3947 374.624 46.408 375.243 47.752C375.883 49.096 376.203 50.696 376.203 52.552V53.352H363.883C363.968 55.144 364.437 56.5093 365.291 57.448C366.165 58.3653 367.349 58.824 368.843 58.824C369.931 58.824 370.827 58.5787 371.531 58.088C372.256 57.576 372.768 56.872 373.067 55.976L375.947 56.2C375.499 57.7573 374.635 59.016 373.355 59.976C372.096 60.9147 370.592 61.384 368.843 61.384ZM373.259 50.984C373.131 49.4053 372.661 48.2213 371.851 47.432C371.061 46.6213 370.016 46.216 368.715 46.216C367.392 46.216 366.304 46.6213 365.451 47.432C364.619 48.2427 364.096 49.4267 363.883 50.984H373.259Z" fill="white"/>
</svg>
